<svg width="100" height="100" viewBox="0 0 100 100" fill="none" xmlns="http://www.w3.org/2000/svg">
<path d="M25.9 7.6001C25.6 16.9001 25.8 28.1001 26.4 36.2001C37.1 27.2001 50.1 17.8001 72.2 6.6001C66.5 3.5001 60.6 1.4001 50.2 1.1001C41.8 1.1001 34 3.0001 25.9 7.6001Z" fill="black"/>
<path d="M3 49.2002L6.29992 51.8002C11.7999 55.9002 17.8999 60.0002 25.6999 65.1002C22.5 46.5 21.9999 33.7002 22.0999 10.2002C12.6999 17.1002 3.1 30.5002 3 49.2002Z" fill="black"/>
<path d="M3.1001 53.8999C3.9001 67.8999 13.3001 83.3999 26.4001 92.3999C31.3001 89.9999 41.4001 84.3999 46.8001 80.5999C31.8001 73.7999 17.7001 65.8999 3.1001 53.8999Z" fill="black"/>
<path d="M30.3 94.2998C35.9 96.8998 42.5 98.9998 50.6 99.0998C57.7 99.0998 64.8 97.8998 72.6 93.3998C72.9 86.0998 73.3 77.0998 73.2 64.2998C61.7 73.9998 44.9 86.0998 30.3 94.2998Z" fill="black"/>
<path d="M76.1 8.7998C69.9 11.3998 61.8 15.7 52.5 21C62.6 25.4 73.3 31.1998 97.1 49.5998C97 34.3998 90.1 19.9998 76.1 8.7998Z" fill="black"/>
<path d="M76.6 38.7002C76.9 55.1002 76.5 72.0002 76.3 91.0002C84.3 85.8002 95.8 73.7002 97 53.9002C90.5 48.9002 84.6 44.3002 76.6 38.7002Z" fill="black"/>
<path d="M50.3107 29C48.165 41.2875 42.8641 47.055 31 50.0642C40.466 52.1957 47.2816 55.581 50.3107 70C53.0874 56.8349 58.2621 53.0734 70 50.0642C58.8932 47.4312 52.9612 42.4159 50.3107 29Z" fill="black"/>
</svg>
