<svg width="100" height="100" viewBox="0 0 100 100" fill="none" xmlns="http://www.w3.org/2000/svg">
<path d="M25.9 7.6001C25.6 16.9001 25.8 28.1001 26.4 36.2001C37.1 27.2001 50.1 17.8001 72.2 6.6001C66.5 3.5001 60.6 1.4001 50.2 1.1001C41.8 1.1001 34 3.0001 25.9 7.6001Z" fill="black"/>
<path d="M4 47L7 49.5C12.5 53.6 18.5 57.6 26.3 62.7C23.1 44.1 22.6 31.3 22.7 7.8C13.3 14.7 3.7 28.1 3.6 46.8L4 47Z" fill="black"/>
<path d="M5 55L3.8 54C4.6 68 14 83.5 27.1 92.5C32 90.1 42.1 84.5 47.5 80.7C32.5 73.9 18.4 66 3.8 54Z" fill="black"/>
<path d="M31.3 95.3C36.9 97.9 43.5 100 51.6 100.1C58.7 100.1 65.8 98.9 73.6 94.4C73.9 87.1 74.3 78.1 74.2 65.3C62.7 75 45.9 87.1 31.3 95.3Z" fill="black"/>
<path d="M78 10C71.8 12.6 63.7 16.9 54.4 22.2C64.5 26.6 75.2 32.4 99 50.8C98.9 35.6 92 21.2 78 10Z" fill="black"/>
<path d="M78 41C78.3 57.4 77.9 74.3 77.7 93.3C85.7 88.1 97.2 76 98.4 56.2C91.9 51.2 86 46.6 78 41Z" fill="black"/>
<path d="M52.3107 31C50.165 43.2875 44.8641 49.055 33 52.0642C42.466 54.1957 49.2816 57.581 52.3107 72C55.0874 58.8349 60.2621 55.0734 72 52.0642C60.8932 49.4312 54.9612 44.4159 52.3107 31Z" fill="black"/>
</svg>